# xmcd CD database file
#
# Track frame offsets:
#	150
#	12155
#	25843
#	37392
#	45048
#	55626
#	73840
#	85815
#	94869
#	106379
#	118381
#	127702
#	137982
#	147324
#	158445
#	170001
#	181113
#	190066
#	202081
#	216457
#	226075
#	238503
#	249431
#	263505
#	273499
#	286867
#	296059
#	307880
#
# Disc length: 4269 seconds
#
# Revision: 0
# Processed by: cddbd v1.5.2PL0 Copyright (c) Steve Scherf et al.
# Submitted via: CDex 1.70beta2
#
DISCID=8e10ab1c
DTITLE=Nat King Cole Trio - Radio Sessions From The Early Years- 1938 - 1939 - Disc 4
DYEAR=1900
DGENRE=Jazz
TTITLE0=D-Day
TTITLE1=Don't Blame Me
TTITLE2=You're So Different
TTITLE3=Sweet Georgia Brown
TTITLE4=Wouldn't You Like To Know
TTITLE5=Barcarolle
TTITLE6=I Thought You Ought To Know
TTITLE7=Bring Another Drink
TTITLE8=It Only Happens Once
TTITLE9=Baby (We Could Have A Lot Of Fun)
TTITLE10=Swingin' The Blues
TTITLE11=Baby Won't You Please Come Home
TTITLE12=Boogie A La King
TTITLE13=Someone's In The Kitchen With Dinah
TTITLE14=Body And Soul
TTITLE15=How High The Moon
TTITLE16=I Got Rhythm
TTITLE17=Sweet Lorraine
TTITLE18=Laura
TTITLE19=Keep Knockin' On Wood
TTITLE20=If Yesterday Could Only Be Tomorrow
TTITLE21=Ain't Misbehavin'
TTITLE22=Penthouse Serenade (When We're Alone)
TTITLE23=Rosetta
TTITLE24=It's Only A Paper Moon
TTITLE25=(What Can I Say) After I Say I'm Sorry
TTITLE26=I Wanna Turn Out My Light
TTITLE27=You Call It Madness
EXTD=
EXTT0=
EXTT1=
EXTT2=
EXTT3=
EXTT4=
EXTT5=
EXTT6=
EXTT7=
EXTT8=
EXTT9=
EXTT10=
EXTT11=
EXTT12=
EXTT13=
EXTT14=
EXTT15=
EXTT16=
EXTT17=
EXTT18=
EXTT19=
EXTT20=
EXTT21=
EXTT22=
EXTT23=
EXTT24=
EXTT25=
EXTT26=
EXTT27=
PLAYORDER=
